<?xml version="1.0" encoding="iso-8859-1"?>
<!-- Generator: Adobe Illustrator 16.0.0, SVG Export Plug-In . SVG Version: 6.00 Build 0)  -->
<!DOCTYPE svg PUBLIC "-//W3C//DTD SVG 1.1//EN" "http://www.w3.org/Graphics/SVG/1.1/DTD/svg11.dtd">
<svg version="1.1" id="Capa_1" xmlns="http://www.w3.org/2000/svg" xmlns:xlink="http://www.w3.org/1999/xlink" x="0px" y="0px"
	 width="568.685px" height="568.685px" viewBox="0 0 568.685 568.685" style="enable-background:new 0 0 568.685 568.685;"
	 xml:space="preserve">
<g>
	<path d="M124.544,546.288c47.124-28.764,74.664-86.292,105.876-132.192c97.308,45.288,222.157,11.017,287.028-72.216
		c72.217-92.412,44.677-224.604-41.615-295.596c-96.084-77.724-219.708-50.796-301.717,30.6
		c-42.84,42.228-63.648,96.084-66.708,154.836c-1.836,37.332,4.896,88.74,34.884,114.444
		C90.884,392.676-38.86,484.477,29.072,556.692C53.552,582.396,101.288,560.977,124.544,546.288z M207.776,269.664
		C174.728,160.728,362.612,40.164,444.621,149.1c37.332,49.572,9.18,120.564-29.376,159.732
		c-26.316,26.316-64.261,37.332-100.368,34.272C266.528,338.82,235.928,303.937,207.776,269.664z"/>
</g>
<g>
</g>
<g>
</g>
<g>
</g>
<g>
</g>
<g>
</g>
<g>
</g>
<g>
</g>
<g>
</g>
<g>
</g>
<g>
</g>
<g>
</g>
<g>
</g>
<g>
</g>
<g>
</g>
<g>
</g>
</svg>
